<svg width="1200" height="700" viewBox="0 0 1200 700" fill="none" xmlns="http://www.w3.org/2000/svg">
  <path d="M115 268L167 226L242 218L294 193L367 205L429 191L490 203L548 189L623 215L697 211L758 226L832 219L894 240L976 250L1046 292L1076 338L1035 351L994 393L940 407L879 398L826 418L758 415L706 451L639 440L573 453L512 425L447 439L379 427L312 451L252 430L202 435L171 408L187 369L145 336L115 268Z" fill="#17324D" fill-opacity="0.08"/>
  <path d="M115 268L167 226L242 218L294 193L367 205L429 191L490 203L548 189L623 215L697 211L758 226L832 219L894 240L976 250L1046 292L1076 338L1035 351L994 393L940 407L879 398L826 418L758 415L706 451L639 440L573 453L512 425L447 439L379 427L312 451L252 430L202 435L171 408L187 369L145 336L115 268Z" stroke="#17324D" stroke-opacity="0.18" stroke-width="6" stroke-linejoin="round"/>
  <circle cx="820" cy="500" r="28" fill="#17324D" fill-opacity="0.08"/>
  <path d="M819 500L839 484L852 500L838 518L817 515L819 500Z" fill="#17324D" fill-opacity="0.13"/>
</svg>
