<svg width="480" height="720" viewBox="0 0 480 720" xmlns="http://www.w3.org/2000/svg">
  <rect width="480" height="720" rx="32" fill="#F5EFE2"/>
  <path d="M78 286L123 250L198 246L253 218L320 234L374 225L426 248L420 296L386 326L344 330L298 348L248 346L198 364L150 358L104 365L74 334L78 286Z" fill="#E3ECF3" stroke="#A8BFD0" stroke-width="4"/>
  <circle cx="136" cy="430" r="28" fill="#F2C7A4"/><ellipse cx="136" cy="500" rx="58" ry="72" fill="#244E6D"/>
  <circle cx="244" cy="446" r="27" fill="#F2C7A4"/><ellipse cx="244" cy="512" rx="56" ry="70" fill="#2E5A79"/>
  <circle cx="344" cy="430" r="30" fill="#F2C7A4"/><ellipse cx="344" cy="506" rx="62" ry="74" fill="#3C6C8A"/>
  <rect x="212" y="470" width="64" height="42" rx="12" fill="#FFFFFF"/>
  <rect x="224" y="484" width="40" height="7" rx="3.5" fill="#8FB2CA"/>
</svg>
